<?xml version="1.0" standalone="no"?><!DOCTYPE svg PUBLIC "-//W3C//DTD SVG 1.1//EN" "http://www.w3.org/Graphics/SVG/1.1/DTD/svg11.dtd"><svg t="1702285194897" class="icon" viewBox="0 0 1024 1024" version="1.1" xmlns="http://www.w3.org/2000/svg" p-id="7538" xmlns:xlink="http://www.w3.org/1999/xlink" width="128" height="128"><path d="M768 128 256 128C185.6 128 128 185.6 128 256l0 512c0 70.4 57.6 128 128 128l512 0c70.4 0 128-57.6 128-128L896 256C896 185.6 838.4 128 768 128zM823.04 314.88l-313.6 313.6C501.12 636.8 490.24 639.36 480 638.08 469.76 639.36 458.88 636.8 450.56 628.48l-185.6-185.6c-14.08-14.08-14.08-35.84 0-49.92 14.08-14.08 35.84-14.08 49.92 0L480 558.08l293.12-293.12c14.08-14.08 35.84-14.08 49.92 0C836.48 279.04 836.48 301.44 823.04 314.88z" fill="currentColor" p-id="7539"></path></svg>