<?xml version="1.0" standalone="no"?><!DOCTYPE svg PUBLIC "-//W3C//DTD SVG 1.1//EN" "http://www.w3.org/Graphics/SVG/1.1/DTD/svg11.dtd"><svg class="icon" width="200px" height="200.00px" viewBox="0 0 1024 1024" version="1.1" xmlns="http://www.w3.org/2000/svg"><path d="M790.073549 409.2416H505.811149l-87.8592-270.336a15.7696 15.7696 0 0 0-30.0032 0l-87.8592 270.336H15.827149a15.7696 15.7696 0 0 0-9.2672 28.5696l229.9392 167.1168L148.486349 875.52a15.7696 15.7696 0 0 0 24.2688 17.664l230.1952-167.3728 229.9904 167.1168a15.7696 15.7696 0 0 0 24.2688-17.664l-87.8592-270.336 229.9904-167.1168a15.7696 15.7696 0 0 0-9.2672-28.5696z m-267.264 163.5328a30.72 30.72 0 0 0-11.1616 34.3552l56.0128 172.3904-146.6368-106.5472a30.72 30.72 0 0 0-36.1472 0l-146.6368 106.5472 56.0128-172.3904a30.72 30.72 0 0 0-11.1616-34.3552L136.454349 466.2272h181.2992a30.72 30.72 0 0 0 29.184-21.1968L402.950349 272.64l56.0128 172.3904a30.72 30.72 0 0 0 29.184 21.1968h181.2992z" fill="currentColor" /><path d="M601.606349 294.4h-51.2A38.5024 38.5024 0 0 1 512.006349 256a38.5024 38.5024 0 0 1 38.4-38.4h51.2A38.5024 38.5024 0 0 1 640.006349 256a38.5024 38.5024 0 0 1-38.4 38.4zM1024.006349 256a38.5024 38.5024 0 0 0-38.4-38.4h-230.4A38.5024 38.5024 0 0 0 716.806349 256a38.5024 38.5024 0 0 0 38.4 38.4h230.4A38.5024 38.5024 0 0 0 1024.006349 256z" fill="currentColor" /><path d="M793.606349 473.6m38.4 0l153.6 0q38.4 0 38.4 38.4l0 0q0 38.4-38.4 38.4l-153.6 0q-38.4 0-38.4-38.4l0 0q0-38.4 38.4-38.4Z" fill="currentColor" /><path d="M716.806349 729.6m38.4 0l230.4 0q38.4 0 38.4 38.4l0 0q0 38.4-38.4 38.4l-230.4 0q-38.4 0-38.4-38.4l0 0q0-38.4 38.4-38.4Z" fill="currentColor" /></svg>
