<?xml version="1.0" standalone="no"?><!DOCTYPE svg PUBLIC "-//W3C//DTD SVG 1.1//EN" "http://www.w3.org/Graphics/SVG/1.1/DTD/svg11.dtd"><svg class="icon" width="200px" height="200.00px" viewBox="0 0 1024 1024" version="1.1" xmlns="http://www.w3.org/2000/svg"><path d="M417.951949 138.9056l87.8592 270.336h284.2624a15.7696 15.7696 0 0 1 9.2672 28.5696l-229.9904 167.1168L657.209549 875.52a15.7696 15.7696 0 0 1-24.2688 17.664L402.950349 725.8112 172.959949 892.928A15.7696 15.7696 0 0 1 148.486349 875.52l87.808-270.336L6.559949 437.8112a15.7696 15.7696 0 0 1 9.2672-28.5696h284.2624l87.8592-270.336a15.7696 15.7696 0 0 1 30.0032 0z" fill="currentColor" /><path d="M601.606349 294.4h-51.2A38.5024 38.5024 0 0 1 512.006349 256a38.5024 38.5024 0 0 1 38.4-38.4h51.2A38.5024 38.5024 0 0 1 640.006349 256a38.5024 38.5024 0 0 1-38.4 38.4zM1024.006349 256a38.5024 38.5024 0 0 0-38.4-38.4h-230.4A38.5024 38.5024 0 0 0 716.806349 256a38.5024 38.5024 0 0 0 38.4 38.4h230.4A38.5024 38.5024 0 0 0 1024.006349 256z" fill="currentColor" /><path d="M793.606349 473.6m38.4 0l153.6 0q38.4 0 38.4 38.4l0 0q0 38.4-38.4 38.4l-153.6 0q-38.4 0-38.4-38.4l0 0q0-38.4 38.4-38.4Z" fill="currentColor" /><path d="M716.806349 729.6m38.4 0l230.4 0q38.4 0 38.4 38.4l0 0q0 38.4-38.4 38.4l-230.4 0q-38.4 0-38.4-38.4l0 0q0-38.4 38.4-38.4Z" fill="currentColor" /></svg>
