<?xml version="1.0" standalone="no"?><!DOCTYPE svg PUBLIC "-//W3C//DTD SVG 1.1//EN" "http://www.w3.org/Graphics/SVG/1.1/DTD/svg11.dtd"><svg class="icon" width="200px" height="200.00px" viewBox="0 0 1024 1024" version="1.1" xmlns="http://www.w3.org/2000/svg"><path d="M509.056 954.24c-3.2 0-7.872 0-11.008-1.536-7.872-1.536-14.208-6.272-20.48-11.008L124.928 581.12c-114.88-118.016-114.88-306.944 0-423.424 47.232-47.232 105.472-72.448 168.448-72.448h1.6c70.848 0 147.968 33.088 215.68 91.328 66.048-58.24 143.232-91.328 214.016-91.328h1.6c62.976 0 121.216 25.216 168.448 72.448 114.88 114.88 114.88 305.408 0 423.424l-354.176 360.512c-7.872 9.408-18.88 12.608-31.488 12.608z m-215.68-780.8c-39.36 0-75.52 15.808-107.008 47.296-81.92 81.856-81.92 215.68 0 299.072l322.688 328.96 322.688-328.96c81.92-83.456 81.92-217.216 0-299.072-31.488-31.488-66.112-47.232-107.072-47.232H723.2c-58.24 0-125.952 34.56-184.192 94.464l-1.536 1.536a46.784 46.784 0 0 1-31.488 12.608 44.544 44.544 0 0 1-31.488-14.144C420.864 208.128 353.216 173.44 293.376 173.44z" fill="currentColor" /></svg>
