<?xml version="1.0" standalone="no"?><!DOCTYPE svg PUBLIC "-//W3C//DTD SVG 1.1//EN" "http://www.w3.org/Graphics/SVG/1.1/DTD/svg11.dtd"><svg t="1712664995785" class="icon" viewBox="0 0 1024 1024" version="1.1" xmlns="http://www.w3.org/2000/svg" p-id="5369" xmlns:xlink="http://www.w3.org/1999/xlink" width="16" height="16"><path d="M853.333333 85.333333H341.333333c-46.933333 0-85.333333 38.4-85.333333 85.333334v512c0 46.933333 38.4 85.333333 85.333333 85.333333h512c46.933333 0 85.333333-38.4 85.333334-85.333333V170.666667c0-46.933333-38.4-85.333333-85.333334-85.333334z m-85.333333 213.333334h-128v234.666666a106.666667 106.666667 0 0 1-213.333333 0 106.666667 106.666667 0 0 1 106.666666-106.666666c24.32 0 46.08 8.106667 64 21.76V213.333333h170.666667v85.333334zM170.666667 256H85.333333v597.333333c0 46.933333 38.4 85.333333 85.333334 85.333334h597.333333v-85.333334H170.666667V256z" p-id="5370"></path></svg>