<?xml version="1.0" encoding="utf-8"?>
<svg
  viewBox="0 0 920 240">
  <defs>
    <linearGradient id="gradient" gradientTransform="rotate(30)">
      <stop offset="0%" stop-color="#323232"></stop>
      <stop offset="40%" stop-color="#3F3F3F"></stop>
      <stop offset="150%" stop-color="#1C1C1C"></stop>
    </linearGradient>
  </defs>
  <!-- fill="url(#gradient) -->
  <path fill-rule="evenodd" clip-rule="evenodd" d="M462 61.401L328 240L0 240V0H413.923L462 61.401ZM426.805 61.407L394.831 102.26C394.337 102.886 394.783 103.814 395.59 103.814H404.903C405.493 103.814 406.059 103.537 406.421 103.079L437.178 63.7803C437.71 63.1016 438 62.2638 438 61.401C438 60.5382 437.71 59.7004 437.178 59.0216L406.421 19.7349C406.059 19.265 405.493 19 404.903 19H395.59C394.783 19 394.337 19.9276 394.831 20.5541L426.805 61.407ZM358.207 102.26L390.181 61.407L358.207 20.5541C357.713 19.9276 358.159 19 358.966 19H368.278C368.869 19 369.435 19.265 369.796 19.7349L400.554 59.0216C401.086 59.7004 401.376 60.5382 401.376 61.401C401.376 62.2638 401.086 63.1016 400.554 63.7803L369.796 103.079C369.435 103.537 368.869 103.814 368.278 103.814H358.966C358.159 103.814 357.713 102.886 358.207 102.26Z" fill="url(#gradient)" />

  <path d="M436.241 217.978C435.529 217.07 435.529 215.801 436.241 214.885L468.723 172H450.868L400.7 240H453.477L436.241 217.978Z" fill="url(#gradient)"/>
  <path d="M742.435 217.978C741.723 217.07 741.723 215.801 742.435 214.885L761.917 190H463.673L442.983 216.435L461.427 240H759.671L742.435 217.978Z" fill="url(#gradient)"/>
  <path d="M766.241 217.978C765.528 217.07 765.528 215.801 766.241 214.885L799.723 172H783.868L769.868 190L749.178 216.435L767.621 240H783.477L766.241 217.978Z" fill="url(#gradient)"/>
</svg>
