<?xml version="1.0" standalone="no"?><!DOCTYPE svg PUBLIC "-//W3C//DTD SVG 1.1//EN" "http://www.w3.org/Graphics/SVG/1.1/DTD/svg11.dtd"><svg t="1748266427173" class="icon" viewBox="0 0 1024 1024" version="1.1" xmlns="http://www.w3.org/2000/svg" p-id="5179" width="200" height="200" xmlns:xlink="http://www.w3.org/1999/xlink"><path d="M106.666667 106.666667A64 64 0 0 1 170.666667 42.666667h576a42.666667 42.666667 0 0 1 42.666666 42.666666v85.333334h85.333334a42.666667 42.666667 0 0 1 42.666666 42.666666v725.333334a42.666667 42.666667 0 0 1-42.666666 42.666666h-597.333334a42.666667 42.666667 0 0 1-42.666666-42.666666v-85.333334h-85.333334a42.666667 42.666667 0 0 1-42.666666-42.666666V106.666667z m597.333333 21.333333h-512v640h42.666667V213.333333a42.666667 42.666667 0 0 1 42.666666-42.666666h426.666667V128z m-298.666667 341.333333a42.666667 42.666667 0 0 0 42.666667 42.666667h256a42.666667 42.666667 0 1 0 0-85.333333h-256a42.666667 42.666667 0 0 0-42.666667 42.666666z m0 170.666667a42.666667 42.666667 0 0 0 42.666667 42.666667h256a42.666667 42.666667 0 1 0 0-85.333334h-256a42.666667 42.666667 0 0 0-42.666667 42.666667z" fill="currentColor" fill-opacity=".85" p-id="5180"></path></svg>