<svg
 xmlns="http://www.w3.org/2000/svg"
 xmlns:xlink="http://www.w3.org/1999/xlink"
 width="560px" height="575px">
<path fill-rule="evenodd"  stroke="rgb(0, 0, 0)" stroke-width="0px" stroke-linecap="butt" stroke-linejoin="miter" fill="currentColor"
 d="M529.000,287.000 C489.597,108.895 336.000,59.000 336.000,59.000 L350.000,0.000 C350.000,0.000 359.061,2.357 393.1000,17.1000 C513.353,71.436 560.000,187.000 560.000,187.000 C560.000,187.000 533.711,273.264 529.000,287.000 ZM238.000,263.000 C190.691,264.450 164.566,300.059 164.1000,337.000 C165.340,365.934 184.470,411.601 238.000,410.1000 C294.505,410.366 306.000,367.1000 306.000,367.1000 C306.000,367.1000 353.164,193.764 366.1000,137.000 C453.533,189.317 475.649,285.215 475.1000,337.000 C476.932,474.693 359.391,574.020 238.000,574.1000 C115.987,575.985 -1.449,467.568 0.000,337.000 C1.880,167.641 153.662,98.674 238.000,99.000 C279.379,99.160 319.000,114.000 319.000,114.000 L276.1000,274.000 C276.1000,274.000 271.350,261.978 238.000,263.000 Z"/>
</svg>
