<svg
 xmlns="http://www.w3.org/2000/svg"
 xmlns:xlink="http://www.w3.org/1999/xlink"
 width="200px" height="200px">
<path fill-rule="evenodd"  fill="currentColor"
 d="M100.000,200.000 C44.772,200.000 -0.000,155.228 -0.000,100.000 C-0.000,44.772 44.772,-0.000 100.000,-0.000 C155.228,-0.000 200.000,44.772 200.000,100.000 C200.000,155.228 155.228,200.000 100.000,200.000 ZM100.018,151.104 L100.018,137.005 L120.267,137.005 L120.267,144.504 L133.317,144.504 C132.567,139.405 131.967,131.455 131.967,127.405 L131.967,108.356 C131.967,102.056 132.567,95.456 133.317,92.307 C129.117,93.206 124.617,93.356 111.418,93.356 C97.768,93.356 92.068,93.056 87.269,92.307 C87.869,95.606 88.319,102.806 88.319,108.506 L88.319,129.955 C88.319,137.455 87.869,144.654 86.519,151.104 L100.018,151.104 ZM59.670,32.159 L47.370,39.359 C51.720,45.358 56.070,52.858 60.720,61.708 L73.919,54.058 C68.819,45.658 64.170,38.609 59.670,32.159 ZM66.119,137.605 L66.119,92.906 C66.119,85.707 66.719,79.107 67.619,74.157 C63.270,75.057 57.870,75.357 51.120,75.357 C44.370,75.357 39.871,75.057 35.671,74.157 L35.671,88.107 C39.421,87.507 44.220,87.207 53.820,87.207 L53.820,132.955 C53.820,140.755 51.720,147.804 46.320,153.054 C49.920,156.354 52.770,160.404 55.470,165.504 C59.070,160.104 61.170,157.554 65.670,153.054 L83.819,135.055 C81.269,132.655 79.919,129.505 79.019,123.805 C75.269,128.305 71.219,132.505 66.119,137.605 ZM81.119,80.907 C92.068,80.007 97.318,79.857 112.168,79.857 C127.467,79.857 131.817,80.157 140.366,80.907 L140.366,67.558 C131.667,68.757 127.017,68.907 112.168,68.907 C98.368,68.907 92.218,68.457 81.119,67.558 L81.119,80.907 ZM121.017,42.059 C102.418,42.059 95.518,42.059 86.069,41.159 L86.069,54.808 C96.568,53.308 104.968,52.708 118.917,52.708 L150.566,52.708 L150.566,146.754 C150.566,152.754 148.466,152.454 131.967,150.654 C136.617,156.054 138.717,162.804 138.717,168.203 C161.816,165.204 163.766,162.954 163.766,150.804 L163.766,58.408 C163.766,48.658 163.916,45.508 164.515,40.709 C152.816,41.909 144.716,42.059 121.017,42.059 ZM120.267,127.405 L100.018,127.405 L100.018,104.156 L120.267,104.156 L120.267,127.405 Z"/>
</svg>
