<svg
 xmlns="http://www.w3.org/2000/svg"
 xmlns:xlink="http://www.w3.org/1999/xlink"
 width="200px" height="200px">
<path fill-rule="evenodd"  fill="currentColor"
 d="M100.000,200.000 C44.772,200.000 -0.000,155.228 -0.000,100.000 C-0.000,44.772 44.772,-0.000 100.000,-0.000 C155.228,-0.000 200.000,44.772 200.000,100.000 C200.000,155.228 155.228,200.000 100.000,200.000 ZM133.810,91.959 C129.610,92.859 125.110,93.009 111.911,93.009 C98.261,93.009 92.562,92.709 87.762,91.959 C88.362,95.259 88.812,102.459 88.812,108.159 L88.812,109.1000 L100.511,109.1000 L100.511,103.809 L120.760,103.809 L120.760,109.1000 L132.460,109.1000 L132.460,108.009 C132.460,101.709 133.060,95.109 133.810,91.959 ZM36.164,87.759 C39.914,87.159 44.713,86.859 54.313,86.859 L54.313,109.1000 L66.613,109.1000 L66.613,92.559 C66.613,85.360 67.213,78.760 68.113,73.810 C63.763,74.710 58.363,75.010 51.613,75.010 C44.863,75.010 40.364,74.710 36.164,73.810 L36.164,87.759 ZM60.163,31.812 L47.863,39.011 C52.213,45.011 56.563,52.511 61.213,61.361 L74.412,53.711 C69.312,45.311 64.663,38.261 60.163,31.812 ZM81.612,80.560 C92.562,79.660 97.811,79.510 112.661,79.510 C127.960,79.510 132.310,79.810 140.860,80.560 L140.860,67.210 C132.160,68.410 127.510,68.560 112.661,68.560 C98.861,68.560 92.712,68.110 81.612,67.210 L81.612,80.560 ZM121.510,41.711 C102.911,41.711 96.011,41.711 86.562,40.811 L86.562,54.461 C97.061,52.961 105.461,52.361 119.410,52.361 L151.059,52.361 L151.059,109.1000 L164.259,109.1000 L164.259,58.061 C164.259,48.311 164.409,45.161 165.009,40.361 C153.309,41.561 145.209,41.711 121.510,41.711 Z"/>
</svg>
