<?xml version="1.0" standalone="no"?><!DOCTYPE svg PUBLIC "-//W3C//DTD SVG 1.1//EN" "http://www.w3.org/Graphics/SVG/1.1/DTD/svg11.dtd"><svg t="1768710492326" class="icon" viewBox="0 0 1076 1024" version="1.1" xmlns="http://www.w3.org/2000/svg" p-id="7170" xmlns:xlink="http://www.w3.org/1999/xlink" width="210.15625" height="200"><path d="M945.203491 0H131.280233A131.705776 131.705776 0 0 0 0 131.280233v761.439534a131.705776 131.705776 0 0 0 131.280233 131.280233h813.923258a131.705776 131.705776 0 0 0 131.280233-131.280233V131.280233A131.705776 131.705776 0 0 0 945.203491 0z m-120.570716 695.622108L657.465023 826.476797a14.18479 14.18479 0 0 1-15.106802 2.978806 13.617399 13.617399 0 0 1-8.369026-12.837235v-79.434825c-175.182158 0-402.422496-13.050007-385.755368-225.963706 25.67447 159.720737 207.239784 122.343815 385.826292 122.343814v-78.016345a13.617399 13.617399 0 0 1 8.298102-12.837235 14.18479 14.18479 0 0 1 5.390221-1.06386 13.759246 13.759246 0 0 1 9.787505 4.042666l166.95498 130.287297a14.18479 14.18479 0 0 1 0 19.645934z m3.262501-182.912868c-25.745394-159.649813-207.239784-122.272891-385.826291-122.272891V468.098075a13.688322 13.688322 0 0 1-8.369027 12.908159 14.18479 14.18479 0 0 1-15.248649-2.695111L251.496329 348.023826a13.759246 13.759246 0 0 1 0-19.504086L418.451309 197.523203a14.18479 14.18479 0 0 1 15.177725-2.978806 13.688322 13.688322 0 0 1 8.369027 12.766311v79.505749c175.04031 0 402.422496 12.979083 385.755367 225.892783z" fill="currentColor" p-id="7171"></path></svg>