<?xml version="1.0" standalone="no"?><!DOCTYPE svg PUBLIC "-//W3C//DTD SVG 1.1//EN" "http://www.w3.org/Graphics/SVG/1.1/DTD/svg11.dtd"><svg t="1768471768791" class="icon" viewBox="0 0 1024 1024" version="1.1" xmlns="http://www.w3.org/2000/svg" p-id="3644" data-darkreader-inline-fill="" xmlns:xlink="http://www.w3.org/1999/xlink" width="200" height="200"><path fill="currentColor" d="M320 704h224v64H320zM320 576h384v64H320zM320 448h384v64H320z" p-id="3645"></path><path fill="currentColor" d="M960 595.1C960 399 805.3 239 611.3 230.5v-0.4H186.5l120.8-120.8L262.1 64 64 262.1l45.3 45.3 152.9 152.9 45.3-45.3-121-120.9h408.6c40.7 0 80.1 7.9 117.1 23.6 35.8 15.2 68 36.9 95.7 64.5 27.7 27.7 49.4 59.8 64.5 95.7C888.1 515 896 554.4 896 595.1s-7.9 80.1-23.6 117.1c-15.2 35.8-36.9 68-64.5 95.7-27.7 27.7-59.8 49.4-95.7 64.5-37.1 15.7-76.5 23.6-117.1 23.6H120.4v64h474.7C796.6 960 960 796.6 960 595.1z" p-id="3646"></path></svg>