<?xml version="1.0" standalone="no"?><!DOCTYPE svg PUBLIC "-//W3C//DTD SVG 1.1//EN" "http://www.w3.org/Graphics/SVG/1.1/DTD/svg11.dtd"><svg t="1751556139194" class="icon" viewBox="0 0 1024 1024" version="1.1" xmlns="http://www.w3.org/2000/svg" p-id="6319" xmlns:xlink="http://www.w3.org/1999/xlink" width="200" height="200"><path d="M891.349333 21.888a124.16 124.16 0 0 1 124.16 124.16V394.24c0 34.261333-27.818667 62.037333-62.08 62.037333h-372.352V83.968c0-34.261333 27.733333-62.08 62.037334-62.08h248.234666zM146.005333 1014.869333a124.16 124.16 0 0 1-124.117333-124.117333v-248.234667c0-34.261333 27.818667-62.08 62.08-62.08h372.352v372.394667c0 34.261333-27.776 62.037333-62.037333 62.037333H146.005333z m548.693334-272.469333c50.858667-51.456 101.418667-110.506667 160.341333-161.962667a21553.92 21553.92 0 0 0 159.829333 161.962667h-101.12c0 95.872-42.197333 169.301333-134.954666 228.309333-39.466667 24.576-86.784 39.424-136.277334 44.16v-110.506666h1.365334a175.573333 175.573333 0 0 0 118.186666-73.642667c16.981333-29.269333 25.386667-58.794667 33.749334-88.32h-101.12zM182.485333 465.493333a20942.421333 20942.421333 0 0 0-160-162.133333h101.376c0-95.829333 42.154667-169.216 134.826667-228.224 39.466667-24.533333 86.741333-39.381333 136.192-44.117333v110.677333h-1.365333a175.445333 175.445333 0 0 0-118.058667 73.642667c-17.066667 29.226667-25.429333 58.752-33.792 88.234666h101.077333c-50.773333 51.456-101.333333 110.421333-160.256 161.877334z" fill="currentColor" p-id="6320"></path></svg>
