<?xml version="1.0" standalone="no"?><!DOCTYPE svg PUBLIC "-//W3C//DTD SVG 1.1//EN" "http://www.w3.org/Graphics/SVG/1.1/DTD/svg11.dtd"><svg t="1738668354783" class="icon" viewBox="0 0 1024 1024" version="1.1" xmlns="http://www.w3.org/2000/svg" p-id="4207" width="16" height="16" xmlns:xlink="http://www.w3.org/1999/xlink"><path d="M921.6 0H102.4C47.261538 0 0 55.138462 0 114.215385v196.923077h1024v-196.923077C1024 55.138462 976.738462 0 921.6 0zM153.6 216.615385c0 3.938462-3.938462 11.815385-11.815385 11.815384h-27.56923c-3.938462 0-11.815385-3.938462-11.815385-11.815384v-118.153847c0-3.938462 3.938462-11.815385 11.815385-11.815384h31.507692c3.938462 0 11.815385 3.938462 11.815385 11.815384v118.153847z m129.969231 0c0 3.938462-3.938462 11.815385-11.815385 11.815384h-31.507692c-3.938462 0-7.876923-7.876923-7.876923-11.815384v-118.153847c0-3.938462 3.938462-11.815385 11.815384-11.815384H275.692308c3.938462 0 11.815385 3.938462 11.815384 11.815384v118.153847z m126.030769 0c0 3.938462-3.938462 11.815385-11.815385 11.815384h-27.56923c-3.938462 0-11.815385-3.938462-11.815385-11.815384v-118.153847c0-3.938462 3.938462-11.815385 11.815385-11.815384h31.507692c3.938462 0 11.815385 3.938462 11.815385 11.815384v118.153847z m126.030769 0c0 3.938462-3.938462 11.815385-11.815384 11.815384h-31.507693c-3.938462 0-11.815385-3.938462-11.815384-11.815384v-118.153847c0-3.938462 3.938462-11.815385 11.815384-11.815384h31.507693c3.938462 0 11.815385 3.938462 11.815384 11.815384v118.153847z m129.969231 0c0 3.938462-3.938462 11.815385-11.815385 11.815384h-31.507692c-3.938462 0-11.815385-3.938462-11.815385-11.815384v-118.153847c0-3.938462 3.938462-11.815385 11.815385-11.815384h31.507692c3.938462 0 11.815385 3.938462 11.815385 11.815384v118.153847z m126.030769 0c0 3.938462-3.938462 11.815385-11.815384 11.815384H748.307692c-3.938462 0-11.815385-3.938462-11.815384-11.815384v-118.153847c0-3.938462 3.938462-11.815385 11.815384-11.815384h31.507693c3.938462 0 11.815385 3.938462 11.815384 11.815384v118.153847z m129.969231 0c0 3.938462-3.938462 11.815385-11.815385 11.815384h-31.507692c-3.938462 0-11.815385-3.938462-11.815385-11.815384v-118.153847c0-3.938462 3.938462-11.815385 11.815385-11.815384h31.507692c3.938462 0 11.815385 3.938462 11.815385 11.815384v118.153847zM0 909.784615C0 968.861538 47.261538 1024 102.4 1024h815.261538c59.076923 0 102.4-55.138462 102.4-114.215385V370.215385H0v539.56923z m437.169231-307.2c0-31.507692 19.692308-43.323077 43.323077-27.56923l169.353846 106.338461c23.630769 11.815385 23.630769 39.384615 0 55.138462l-169.353846 106.338461c-23.630769 15.753846-43.323077 3.938462-43.323077-27.569231v-212.676923z" fill="currentColor" p-id="4208"></path></svg>
