<svg xmlns="http://www.w3.org/2000/svg" width="32" height="32" viewBox="0 0 14 14"><path fill="currentColor" fill-rule="evenodd" d="M7.75.766a.75.75 0 0 0-1.5 0v1.223A5.07 5.07 0 0 0 1.99 6.25H.765a.75.75 0 0 0 0 1.5h1.223a5.07 5.07 0 0 0 4.261 4.26v1.224a.75.75 0 0 0 1.5 0v-1.223a5.07 5.07 0 0 0 4.26-4.261h1.224a.75.75 0 0 0 0-1.5H12.01a5.07 5.07 0 0 0-4.26-4.26zm2.816 6.228a3.566 3.566 0 1 0-3.572 3.572h.012a3.566 3.566 0 0 0 3.56-3.56zM5.77 7a1.23 1.23 0 1 1 2.46 0a1.23 1.23 0 0 1-2.46 0" clip-rule="evenodd"/></svg>
