<?xml version="1.0" standalone="no"?><!DOCTYPE svg PUBLIC "-//W3C//DTD SVG 1.1//EN" "http://www.w3.org/Graphics/SVG/1.1/DTD/svg11.dtd"><svg t="1749544765094" class="icon" viewBox="0 0 1024 1024" version="1.1" xmlns="http://www.w3.org/2000/svg" p-id="3503" width="200" height="200" xmlns:xlink="http://www.w3.org/1999/xlink"><path d="M706.432 110.698667l135.189333 47.232A144.810667 144.810667 0 0 1 938.666667 294.656v110.848a85.333333 85.333333 0 0 1-85.333334 85.333333h-41.749333V832a85.333333 85.333333 0 0 1-85.333333 85.333333h-427.733334a85.333333 85.333333 0 0 1-85.333333-85.333333V490.837333H170.666667a85.333333 85.333333 0 0 1-85.333334-85.333333v-110.848a144.810667 144.810667 0 0 1 97.024-136.725333l135.189334-47.232a71.957333 71.957333 0 0 1 79.146666 22.037333c28.8 34.773333 66.282667 51.754667 115.285334 51.754667 49.024 0 86.485333-16.981333 115.306666-51.754667a71.957333 71.957333 0 0 1 79.146667-22.037333z m-19.584 83.562666l-3.477333 3.861334c-44.394667 47.616-102.677333 71.68-171.392 71.68-68.693333 0-126.976-24.064-171.370667-71.68l-3.498667-3.861334-126.592 44.224a59.477333 59.477333 0 0 0-39.722666 52.202667L170.666667 294.656v110.848h85.184a42.666667 42.666667 0 0 1 42.666666 42.666667V832h427.733334V448.170667a42.666667 42.666667 0 0 1 42.666666-42.666667H853.333333v-110.848c0-23.957333-14.357333-45.44-36.16-54.72l-3.690666-1.450667-126.634667-44.224z" fill="currentColor" p-id="3504"></path></svg>