<svg xmlns="http://www.w3.org/2000/svg" viewBox="0 0 1024 1024">
  <circle cx="512" cy="512" r="448" fill="currentColor" fill-opacity="0.1"/>
  <path d="M512 64C264.576 64 64 264.576 64 512s200.576 448 448 448 448-200.576 448-448S759.424 64 512 64zm0 832c-212.072 0-384-171.928-384-384s171.928-384 384-384 384 171.928 384 384-171.928 384-384 384z" fill="currentColor"/>
  <!-- 太极阳部分（上半圆） -->
  <path d="M512 64c-212.072 0-384 171.928-384 384 0 110.928 47.168 210.688 122.368 280.576C322.624 662.4 320 637.056 320 608c0-106.048 85.952-192 192-192s192 85.952 192 192c0 29.056-2.624 54.4-30.368 120.576C748.832 658.688 796 558.928 796 448c0-212.072-171.928-384-384-384z" fill="currentColor"/>
  <!-- 太极阴部分（下半圆） -->
  <path d="M512 960c212.072 0 384-171.928 384-384 0-110.928-47.168-210.688-122.368-280.576C701.376 361.6 704 386.944 704 416c0 106.048-85.952 192-192 192s-192-85.952-192-192c0-29.056 2.624-54.4 30.368-120.576C275.168 365.312 228 465.072 228 576c0 212.072 171.928 384 384 384z" fill="currentColor" fill-opacity="0.5"/>
  <!-- 阳中阴眼 -->
  <circle cx="512" cy="320" r="64" fill="currentColor" fill-opacity="0.5"/>
  <!-- 阴中阳眼 -->
  <circle cx="512" cy="704" r="64" fill="currentColor"/>
</svg>
