<?xml version="1.0" standalone="no"?><!DOCTYPE svg PUBLIC "-//W3C//DTD SVG 1.1//EN" "http://www.w3.org/Graphics/SVG/1.1/DTD/svg11.dtd"><svg t="1738668354783" class="icon" viewBox="0 0 1024 1024" version="1.1" xmlns="http://www.w3.org/2000/svg" p-id="4207" width="16" height="16" xmlns:xlink="http://www.w3.org/1999/xlink"><path d="M512 64C264.6 64 64 264.6 64 512s200.6 448 448 448 448-200.6 448-448S759.4 64 512 64zm0 820c-205.4 0-372-166.6-372-372s166.6-372 372-372 372 166.6 372 372-166.6 372-372 372zm120-556c-13.2 0-24 10.8-24 24v88c0 13.2-10.8 24-24 24H440c-13.2 0-24-10.8-24-24v-88c0-13.2-10.8-24-24-24s-24 10.8-24 24v88c0 39.8 32.2 72 72 72h144c39.8 0 72-32.2 72-72v-88c0-13.2-10.8-24-24-24z" fill="currentColor" p-id="4208"></path><path d="M340 360h344c13.2 0 24-10.8 24-24s-10.8-24-24-24H340c-13.2 0-24 10.8-24 24s10.8 24 24 24zm0 120h344c13.2 0 24-10.8 24-24s-10.8-24-24-24H340c-13.2 0-24 10.8-24 24s10.8 24 24 24z" fill="currentColor" p-id="4209"></path></svg>
