<?xml version="1.0" standalone="no"?><!DOCTYPE svg PUBLIC "-//W3C//DTD SVG 1.1//EN" "http://www.w3.org/Graphics/SVG/1.1/DTD/svg11.dtd"><svg t="1738746596023" class="icon" viewBox="0 0 1024 1024" version="1.1" xmlns="http://www.w3.org/2000/svg" p-id="4204" width="32" height="32" xmlns:xlink="http://www.w3.org/1999/xlink"><path d="M512 9.143C234.715 9.143 9.143 234.713 9.143 512S234.715 1014.857 512 1014.857 1014.857 789.287 1014.857 512 789.287 9.143 512 9.143zM512 960C264.965 960 64 759.036 64 512c0-102.607 35.035-197 93.286-272.607-2.428 9.143-7.393 25.786-6.107 30.75 1.75 6.213 0.786 9.427 2.93 14.856-1.323 1.035-4.179 2.964-3.001 5.142 3.679 7.285 8.108 17.858 13.75 18.429-2.214 11.035 3.572 6.714 7.037 15.928 0.393 1.822-0.465 4.822 1.715 5.715 9.5 2.892 22.715 7.714 27 15.857-0.142-0.071-0.427 0-0.57 0 0 0.5-0.071 1.428-0.108 1.93 1.822 6.463 4.036 7.82 6.43 12.642 1.464 3.32 1.179 10.93 4.357 13 4.75 3 9.357 8.678 13.5 14.642 2.394 3.5-4.642 2.643-5.856 2.643 2.929 4.214 9.322 3.214 13.178 7 3.035 2.784 5.215 5.785 8.357 8.892-0.072 1.892-0.143 5-0.18 7.464 0.536 1.18 1 1.465 2.93 2.5 3.32 2.143 5.785 8.572 11.392 8.678 0.071 0.892 4.357 6.036 4.856 6.07 0.715-0.107 2.036-3.285 2.178-4.391-0.071-1.75-3.465-7.143-5.965-4.822-5.5-3.5-7.07-10.714-9.214-17.679-2.285-6.07-7.572-8.786-9.678-15.43-1.394-4.821-1.858-7.572-5.786-11.428-2.93-2.856-6.535-2.536-8.536-6.714-2.071-4.608-4.642-8.072-4.571-14 0.036-0.678 0.071-2.75 0.75-3.68 3.392 3.358 8.036 2.894 13.035 4.965 1.893 0.964 1.429 7.072 4.036 9.643 2.286 2.428 1.428 7.142 4.072 9.786 3.178 3.072 5.823 5.857 9.787 9.607 0.644-0.715 0.607-0.535 3.286-0.108-0.037 7 8.75 7.214 11.714 12.321 1.285 3.178-0.93 5.894 1.642 8.322 2.713 2.642 7.678 3.857 10.858 6.75 6.5 6.357 13.392 15.678 17.071 26.393 0.393 1.57 2.964 2.822 3.036 6.75 0.25 3.32-3 4.964-3.178 8.25 0.142 1.964 2.035 5.857 4.642 5.857 1.536 3.893 10.571 5.928 14.393 9.357 0.858 0.57 2.608 1.499 3.465 2.071 4.036 1.787 6.142 1.143 10.465 2.93 4.001 2.143 5.43 5.571 9.821 6.82 3.822 0.964 5.823-0.82 9.322 0.57 3.643 1.608 13.894 8.465 18 8.68 1.93-0.037 5.037-0.608 7.429 0.57 1 0.428 3.927 2.642 6.5 2.679 5.607-0.072 6.5-5.823 12.358-5.965 1.929 0 4.32 0.892 7.179 2.393 0.499 0.037 1.5 0 1.964 0 8.857 4.107 11.214 16.25 21.571 21 6.643 3.035 10.964 1.607 17.428 4.215 4.215 1.892 7.536 4.821 13.786 5.107 1.679-0.072 3.893-1.357 6.25-1.5 0.464 0.143 1.5 0.072 1.964 0 2.106 7.285 7.464 9.714 12.857 14.678 1.179 1.107 3.285 2.323 4.25 5.07 1.641 4.715-1.643 8.573 3.285 11.643 0.786-0.179 2.465 0.037 3.286-0.036-0.5-0.393-0.464-1.964 0-2.642 0.25-0.037 11.25 6.107 12.464 8 0.928 1.786 1.142 5.141 5.893 6.25-0.108 0.427 1.143 1.82 1.607 1.75 1.679 0 7.357-1.787 9.822 0.285 2.607 2.5 5.785 7.892 11.035 7.963 1.93 0.108 4.25-1.5 4.928-4.5-0.464-0.25-2.5-1.786-2.608-2.679 0.251-1.25 9-7.643 11.466-7.715 3.428 0 1.285 6.678 4.964 8.394-0.499 0.857-1.892 2.106-2 2.964 0.036 0.678 3.143 1.858 3.642 2.285 0.214 0.037 0.57-0.285 0.787-0.321-0.143 0.464-0.5 1.393-0.536 1.892 0.071 5.358 5.535 4.144 5.714 10.536-0.071 2.93-1.57 4.107-1.679 7.644 0.143 1.75 1.822 4 1.858 6.43-0.036 0.356 0 1.105 0 1.464-0.322 0.607-1.071 1.75-1.322 2.357 0 0.643 1.93 2.57 3.178 2.893-2.214 7.928-10.178 5.785-14 12.392-2.57 4.785-4.856 12.286-13.714 12.608 1.18 13-3.392 18.357-3.536 24.929-0.071 4.143 0.393 9.393 5 9.607 1.678-0.071 1.892-1.465 4.821 0.214-1.536 4.358-7.036 5.643-10.072 10.035-0.963 0.821-3.536 5-3.642 8.465-0.037 4.785 4.357 10.57 7.786 13.5 1 0.786 3.68 0.464 4.75 2.143 0.679 1.5 1.5 5.572 3.68 7.607 0.857 0.428 3.072 0.18 4.072 1.821 2.607 5.142 4.463 8.5 6.607 14.786 2.035 5.678 3.642 11.714 5.964 17.964 1.394 4 5.678 5.678 5.607 9.786 0 3.392-1.394 6.037 0.963 8.037 5.536 4.785 9.394 7.892 18.036 9.787 4.143 1 5.857 1.57 9.5 4.679 3.214 2.465 6.57 2.106 10.963 3.428 5.607 2.465 9.642 5.287 12.178 11.178 0.571 2.785 1.251 16.858 1.035 19.215-0.356 3.643-3.357 10.143-3.642 13.572-0.393 3.25-0.536 6.429-0.786 10.143-0.893 2.249-2.571 6.5-2.68 8.036 0.037 0.644-0.107 1.357-0.142 2.036-0.82 7.535-5.535 12.286-6.321 20.642-0.18 3.429-3.68 6.644-2.323 10.215-0.427 5.357-0.678 10.357-1.214 15.285-2.178 4.785-2.642 8.071-4.928 12.785-0.499 0.75-1.786 0.858-2.642 1.536-1.357 1.394-2.357 3.965-3.642 5.572-2.75 2.642-7 7.25-7.536 11.536-0.357 1.465-0.25 6.108 0.715 6.142 0 0 1.322 0.465 1.393 1.787-0.25 0.57-1.035 1.072-2.821 1.285-1.322 3.25-3.32 4.643-3.608 7.893-0.108 2.177-1.214 6.107 1.072 6.107 1.642-0.357 2.177-1.357 4.286-2.143 0.715-0.18 1.715-0.037 2.428-0.214-0.036 1.106-0.143 1.393-0.322 2.465-3.072 4.714-6.07 9.322-9.071 13.928C549 958.501 530.679 960 512 960zM468.75 66.178c-0.606 1.106-1.464 2.286-3.678 3.714-6.572 4.25-12.179 0.57-12.287-1.072 0-0.356 0.57-0.356 0.821-0.57 5.073-0.679 10.037-1.571 15.145-2.072z m167.072 876.035c0.464-0.393 0.57-0.714 1.143-1.106-1.286 0-2.571-0.25-2.286-1.892 2.465-0.57 3.072 0.857 6.286 0.356 0.428-0.214 2.93-1.106 2.965-2.428 0.356-1-0.858-0.465-1.93-1.214-0.678 0.322-2.607 1.428-3.785 1.678-2.106 0.428-4.392-3.178-4.035-5.606 0.071-1.072 1-2.286 2.964-2.322 5.25-0.964 5.643 1.25 11 0.535 1.643-0.356 5.678-1.929 6.25-2.856 0-0.75 0.143-0.963 0.357-1.642 2.25-2.607-0.715-4.5 3.107-7.108 2.785-2 10.5-1.393 14.714-2.964 6.393-2.393 11.001-2.57 16.18-6.178 2.642-2.286 4.785-3.429 7.643-6.43 1.607-1.322 1.821-2.393 2.286-4.856 0.75-2.286-3.358-1.072-3.785-3.036-0.5-2.713-0.143-3.785-1.75-5.07-0.858-0.465-4.179-0.465-3.893-2.323 0.107-0.643 1.499-1.18 2.214-1.285 4-0.715 6.678 1 10.035 0.356 1.642-0.285 6.535 0.536 10.679-0.142 11.25-2.323 15.142-11.5 21.215-18.394 5.287-5.643 11.465-10.642 17.035-16.643 2.679-3.107 0.536 1.393 2.679-1.608v0.108c3.32-4.535 6.464-8.18 11.429-11.392 1.071-5.215 1.786-10.858 2.713-16.607 0.5-3.893-0.786 0.607 3.036-2.714 2.177-2 5.286-2.465 7.643-5.785 5.429-6.857 10.214-5.107 16.929-11.286 0.644-0.715 1-1.93 2.75-2.822 3.357-2.177 6.715-2.678 11.035-3.75 3.786-0.678 8.787-4.785 10.643-7.75 0.607-0.786 0.82-3.32 2.035-4.928 4-5.035 5.464-7.356 9.75-13.143 0.57-0.821 1.892-5.607 2.536-7.644 0.18-1.75 2.465-4.357 3.68-5.677 0.392-0.608 1.535-1.822 1.535-2.93 0.679-2.785 4.179-14.965 4.822-19 0.893-5.5-2.393-7 1.25-11.392 2.43-2.68 4.786-3.822 7.465-7.573 1.787-2.428 2.571-3.072 4.107-5.429 7.214-11.035 16.858-21.677 19.5-39.535 0.715-5.25 0.214-9.964-3.536-10.714-2.785-0.499-4.572 1.107-7.465 0.715-3.392-0.857-8.75-6.606-10.57-10.178-2.608-1.071-5.572-2.249-9.93-2.678-2.536 0.714-5.643 1.642-8.678 2.285-4.464 0.715-4.75-3.25-10.035-2.893-2.143 0.322-3.107 2.107-5.43 3.392-0.57 0.108-1.142 0.072-1.678 0.18 0.25-1.93 0.607-4.107 0.071-6.393-0.356-1.787-2.322-1.18-4.32-2.428-3.073-1.608-11.572-5.857-15.964-5.572-4.358 0.5-7.464 6.142-10.322 10.642-0.57 1.143-2.107 3.357-3.072 3.392-0.679 0.108-1.143-2.143-1.072-2.785-1.892-0.071-3.822 0.465-6.179 0.5-0.25-2.714-1.5-4.5-4.035-5.751-1.18-0.357-3.643-0.037-3.465-2.68 0.857-8.178 9.536-18.855 14.142-24.535-0.072-2.178-3.072-2.5-4.393-5.107-1.071-3.036-4.072-11.429-4-14.75-4.43-0.892-9.642-9.428-14.037-9.499-0.464 0.108-1.179 0.071-1.642 0.071 0.143 0-0.036-0.427 0.037-0.57-2.608 0.214-7-1.893-8.929-2.679-2.072 0.108-4.928 0.071-7.214 0.285-7.643-1.106-18.929 0.25-21.178-7.678-1.214 0-3.822-0.678-4.25-1.57-3.642-7.072-5.785-6-11.357-11.358-2.571 0.25-5.5 0.143-8.18 0.214-1.393-3.893 0.072-7.857-3.964-9.143-4.357-1.214-10.57-2.035-12.714-6.142-0.07-0.57 0.072-1.715 0.037-2.286 0.75 0.357 3.571 0.072 4.5-0.678 0 0-5.5-0.786-8.393-0.715-0.75 0.357-7.18 0.964-7.536 1.57-2.393 3.5-4.893 3.537-9.5 4.216-1.892 0.07-6.106-0.394-6.07-3.107-5.464 0.142-11 0.142-16.678 0.214-1.465-0.143-3.572-2.215-3.68-5.215-4.463-0.787-11.713-2.429-12.893-7.143-1.428-0.036-4.143-0.108-5.535-0.036-0.25 3.465 4.714 2.106 5.928 5.535-1.892 0.142-4.893 0.142-7.535 0.071-2.856 1.893-7.75 1.286-8 5.678-0.18 3.536 3.465 5.464 3.714 9.106-0.108 0.858-2.072 4.643-3.036 4.786-3.821-0.143-5.463-5.715-5.142-8.822-0.179-1.963 1.93-7.643 2.965-12.106 0.963-0.037 3.143-1.215 3.214-3.608 0 0-1.642-3.392-2.856-3.537-3.68 0.286-5.07 4.358-9.25 5.715-8.215 2.357-12.965 3.607-20.858 6.07-4.106 1.357-7 2.036-8.714 6.894-0.465 1.75-1.251 6.036-2.965 7.428-1.57 0.607-4.999 2.106-5.215 5.07-0.464 0.108-1.858 1.035-1.964 1.465 0.143 0.428 0.108 1.357 0 1.787-1.607 0.643-1.428 0.464-3.893 0.07-0.643 0.394-1.786 1.572-2.428 2.036 0.5-0.607 1.679-1.75 2.178-2.322-5.142-3.68-5.572-12.215-15.036-12.535-7.893 0.108-11.928 5.893-20.572 6.036-5.714-0.143-5.464-5.321-9.143-7.108-5.25-2.322-11.856-4.75-12.107-11.607-0.036-6.214 0.18-11.893 0.037-18.25 2-2.964 2.286-14.643 2.286-17.393 0.214-1.071 0-3.392 0-4.5-5.823-1.214-7.75-6.179-15.786-6.321-11.537 0.108-20.287 1.82-31.25 1.82-1.465 0.072-3.822-1.178-3.965-3.285-0.037-0.357-0.108-1.18 0-1.5 1.536-1.214 5.857-2.964 5.928-5.999-0.18-4.928-0.108-9.713 0-14.43 0.644-0.107 2-0.036 2.642 0-0.107 0.5 0.072 1.608 0 2.107 2.072-2.964 3.928-4.964 3.928-9.892 0.108-5.822 5.5-11.036 5.607-15.285a33.57 33.57 0 0 0 0-2.714c-1.429 0.037-6.572-0.428-7.536-0.57-0.929-0.536-3.642-1.107-6.572-0.93-9 0.037-20.5-0.25-20.785 8.573-0.143 4.5-5.358 8.464-6.929 12-0.214 0.857-2 4.642-4.608 4.784-0.929 0.037-2.642-1.786-6.213-1.786-6.75 0-11.714 4.072-17.964 4.215-1.93-0.072-2.642-2.608-5.535-3.571-8.75-2.571-8.536-7.322-14.285-12.786-2.178-2.072-6.464-6.286-7.75-8.643-1.464-2.785 0.357-4.358-0.928-7.108-0.57-0.821-3.001-3.465-2.537-5.928 0.18-5.5 0.18-10.858 0.143-16.57 1-4.536 3.32-6.322 3.32-11.857 0.072-1.322-0.786-3.358-1.25-4.68-0.108-0.142-0.285-0.57-0.18-0.715 0.143-0.142 0.716 0.286 0.858 0.108 0.108-0.643-1.536-2.249-1.57-2.93 0.285-8.749 4.143-16.677 11.465-19.177 3.214-1.286 6.107 0.929 8.75-1.57 4-3.43 8.356-10.714 17.857-10.965 3.714 0.071 5.5 2.893 9.072 2.822 1.428-0.072 3.428-2.323 4.893-2.358 6.607 0.037 14 9.643 23.428 5.715-3.965-2.429-1.106-5.142-0.607-9.357-1.571 0.322-1.286 0.929-4.572 0 5.607-1.715 12.321-1.143 17.571-2.357 0.037 0.644 1.57 2.357 2.286 2.322 1.929 0.072 3.5-2.465 8.179-2.357 7.857-0.108 11.25 6.894 17.285 6.75 2.144 0 4.215-3.786 7.18-3.786 14.5 0.25 10.642 17.608 15.749 27.358 2.642 4.822 5.678 6.429 9.858 10.929 1.821 3.072 1.642 7.214 6.535 7.464 5.572-0.036 7.108-5.5 7.108-11.785 0.036-5.535-2.893-8.214-4.001-11.822 0.071-0.356-0.037-1.071 0-1.464-0.285-9.465-8.964-12.179-9.251-22 0.143-21.392 15.786-22.43 31.036-29.678-0.25-0.142-0.643-0.428-0.892-0.57 1.5-1.214 1.465-2.428 5.392-3.608 1.964-0.25 4.179-2.679 7.93-3.286 1.321-0.142 2.963-2.178 3.678-3.035-0.929-0.57-2.785-1.679-3.785-2.072 0.071-0.57-0.071-1.642-0.036-2.25 2.143-0.036 4.32 0.251 4.893-2.75-1.18-0.356-3.144-0.499-4.464-2.57 1.214 0.036 4.144-0.858 4.179-3.321-0.037-0.75 0.036-2.107-0.072-2.785-0.499-0.285-1.678 0-2.214-0.071-1.428-1.322-0.037-1.465-0.108-4.179-0.143-2.856-1.642-7.928-1.821-9.786 0 0-0.25-2.536 0.25-3.643 0.536 3.001 3.75 6.965 3.68 9.286 0.07 0.786 0.07 2.25 0.07 3.072 0.072 0.393 0.858 1.642 1.286 1.715 0.715-0.214 6.894-9.929 7-11.25-0.18-1.75-2.286-2.855-2.964-5.32 0.393-0.357 1.18-0.93 1.536-1.357 0.428 0.499 1.536 2.249 2.249 2.286 1.679-0.072 7.892-9.5 8.428-11.537 0 0-2.93-2.25-2.893-3.357-0.285-0.607 1.143-1.465 1.786-1.858 0.715 0.108 2.107 0.18 2.822 0.393 4.571-0.356 7.393 0.285 11.75-0.964-1.57-1.214-4.893-0.036-7.75-0.285-0.82-0.071-2.321-0.25-3.106-0.108 6.214-3.357 16.536-1.428 22.643-5.07 0.93 0.892 6.287 0.499 10.072-0.357-0.108-0.5-0.071-1.357-0.071-1.858 0 0-2.822 1.642-3.32 1.715-1.429 0-3.25-3.856-3.25-4.964-0.715-0.18-1.18-1.787-1.322-2.428-0.108-10.608 10.642-6.786 15.572-10.822 2.964-1.071 3.178-1.642 6.82-1.465 4.215 0.322 7.285-1.25 9.286-3.856-0.5-0.357-1.035-1.428-1.428-1.93 0 0-0.037-0.643-0.214-0.749 0.036-0.25 0-0.57-0.037-0.786 0.5 0.108 2.25 0.142 2.964 0.179 1.428 0.037 9.18 1.465 11.785 0.25 2.643-1.535 2.25-4.642 6.644-4.642 0.356 3.428-0.037 3.75 4.679 4.178-6.82-0.071-16.858 3.5-16.607 9.143 0.18 1.964 4.608 6.678 6.321 6.894 1.893-0.108 7.357-6.25 13.036-7.644 1.214 0 20.144-5.286 20.464-7.356-0.393-2.642-7.465-3.643-9.394-3.785-8.321-0.75-21.714-8.715-22.678-15-1.57-0.322-4.143-1-6.286-1.143 1.57-1.858 11.679-2.143 11.536-7.285-0.607-4.357-9.071-4.463-15.356-4.893-13-0.75-18.107 6.179-27.143 6.894 3.607-6.572 9.678-4.107 15.928-8.93 4.001-3.428 0.57-5.571 6.75-6.857 10.821-2.071 16.963 0.143 28.106 1.107 14.393 1.285 25.429 7.213 33-1 3.5-3.857 23.787-1 23.357-6.715-0.536-4.25-2.679-6.25-5.606-9.072-1.893-0.356 0.75-1.464-2.465-2.929 0.036-0.678-0.322-1.428-0.286-2.106-5.856 1.499-18.106 2.75-24.857 2.106-0.679 0.108-2.571-0.678-2.785-1.035 5.215-1.285 19.608-0.644 21.142-3.928 0-0.857-2.143-1.464-2.536-2.249-6.607-0.322-20.179-3.785-21.108-9.821-0.142-0.071-0.07-0.357-0.07-0.357-6.037-0.929-9.893-3.679-13.644-5.785 1.214-0.5 3.857-0.536 3.714-2.643-0.108-1.642-2.75-3.428-2.5-4.928-2.713-0.928-11.927-5.107-9.929-8.107 2.286-3.68-9.035-5.607-10.75-10.178-0.715-0.072-4-1.93-4.965-2.643-1.75 0.644-6.714 1.787-5.822 3.928 1.679 3.68-3.106 3.928-8.036 5.5-3.32 1.107-5.857 3.643-8.858 3.321-5.036-0.464-9.18-6.107-12.608-6.606-4.75-0.536-3.072-8.143-4.178-11.857-1.93-4.571-16.214-2.785-17.214-8.643-8.072-1.286-7.18-4.215-15.43-4.715-1.715-0.213-4.178-0.285-6.321-0.393-8.393-0.535-13.535-3.536-21.928-3.893-4.393-0.25-8.607 0.644-8.536 3.608 0.214 1.679 10.679 4.286 1.285 7.393-3.821 1.143 5.5 5.464 6.25 7.786 1.286 5.393-6.857 6.036-10.821 6.678 4.143 3.68 11.928 4.893 15.572 8.18 2.893 2.963 1.25 7.571 1.428 12.999-0.214 3.214-17.465 10.5-23.643 11.249 10.858 3.679 6.965 13.178 11.214 16.786-0.963 1-4.215 4.965-4.5 6.82-3.785 0.215-6.965 1.107-10-0.464-7.786-4.072-19.036-11.178-19.358-16.214-0.213-5.392 0.072-9.82-8.643-12.893-6.464-1.357-12.857-2.25-19.286-3.215-11.465-4.286-23.786-7.285-37.358-9.82-1.892-0.465-9.214-3.036-13.5-3.073-4.608 0.18-6.715 2.714-11.215 2.68-0.179-3.857-4.357-12.43-11-12.572-3.072 0.179-4.464 1.464-7.501 1.857 1.106-1.786 0-2.678 0.322-7.142 0.285-6.572 4.5-12.357 11.57-16.143 2.466-1.82 7.715-7.25 9.965-7.82 5.036-0.964 9.678 2.214 9.892-1.465-0.071-2.5-11.107-2.107-15.179-3.143 2.143 0.321-6.606-2.68 17.5 0.643 6.286 0.465 2.5-3.178 6.036-3.286 1.75-0.108 4.178-0.179 6.429-0.071 7.25-0.108 10.893-3.785 15.572-5.535 0-0.786 0.037-1.393 0.037-2.178-10-1.214-19.608-0.25-24.072-4.392 1.429-0.108 3.786-0.214 5.215-0.071 3.75 0.82 7.357 3 13 3.106 4.714-0.179 15.07-1 15.356-2.642-0.108-2.75-0.715-3.856-1.285-4.32 5.714 0.284 8.036 2.75 11.927 2.892 3.215-0.214 6.287 0.214 9.68 0.18-1.323-0.716-0.394-3.287 3.464-0.645 2.072 1.465 16.214-4.32 16.536-6.178-0.25-1.357-6.572-2.643-6.75-3.571 0.037-0.715-1.464-1.787-0.036-3.001 3.255-0.086 6.433-0.514 9.719-0.514 11.465 0 22.715 0.858 33.93 1.715 0.284 0.072 1.427 1.286 2.356 1.5 3.68 0 5.25-1.035 8.821-0.75 5.786 0.678 23.821 7.356 24.428 10.394 0.18 1.786-5.358 3.5-7.857 4.5-1.858 0.25-6.894-0.787-6.857 1.214 0.036 1.035 4.143 2.357 5.286 2.856-3.465 0.5-10.072 0.858-12.571 0.75-4.321-0.322-8.072-0.644-12.215-0.787-3.965-0.427-11.144 1.286-11.25 2.608 0.25 1.787 9.251 3.822 12.535 4.072 3.429 0.357 5-1.322 8.465-1.285 2.106 0.214 1.964 0.929 4.893 1.18 2.106 0.213 4.178-0.716 5.535-1.394 8.393 2.607 13.036 5.142 22.535 7.82-4.215 3.608 12.286 5.071 19.321 7.25 7.322 2.466 12.178 2.5 20.571 4.965 0.679 0.322 1.75 1.716 2.965 1.822 0.928 0.071 2.57-0.286 2.536-1.214-0.893-3.466-16.072-7.573-21.142-10.785 1.106 0.464 2.964 0.356 4.178 0.464 3.178 2 20.857 7.036 26.035 7.786 1-1.393 3.465-3.035 3.358-4.32-0.322-1.394-5.108-2.5-5.216-3.393a13.323 13.323 0 0 1-0.321-2.393c-1.357 0.07-3.286-0.394-4.608-0.57-0.821-2.107-2.429-1.072-7.786-2.323-1.75-0.786-5.786-3.608-6.536-5.179-1.035-0.142-2.536-0.25-3.57-0.428 0-0.643-0.038-1.142-0.215-1.75 0.929 0.394 2.428 0.571 4.072 0.465-0.142-0.5-0.036-0.858-0.179-1.357-2.143-0.214-2.93-0.142-5.464-0.857 0.18-0.143 3.537-0.858 5.25-0.679 13.358 1.679 14.536 9.357 28 11.32 3 0.286 3.106-1.356 2.963-2.784 5.108 0.536 5.643-0.214 5.572-0.57-0.143-0.571-0.285-0.93-0.285-1.5 2.785 0.428 5.822 0.536 6.75-0.428 10.356 3.857 20.607 7.929 30.606 12.5 0.499 0.357 1.214 0.786 2.214 1.035 5.43 2.536 10.822 5.107 16.143 7.821-1.715-0.644-3.392-1.322-5.287-1.715-2-0.57-1.892-0.607-4.107-0.93 1.465 2.5 13.036 5.966 21.179 8.5 1.25 0.715 2.357 1.5 3.608 2.214-1.428 1.5-3.358 2.072-4.001 4.464-3.358-1.536-3.286-1.393-6.322-1.25 0.072 0 0.037 0.142 0.037 0.142-4.392 0.786-5.036 2.428-7.857 3.856 0.142 0.964 0.285 1.536 0.57 2.429 1.536-0.072 2.964 0.356 4.68 0.963-0.429 1.394-1.965 0.964-1.68 2.215 0.571 2.893 7.251 5.32 9.107 7.786 0.964 1.106 2.214 3.608 3.178 4.107 4.358 2 4.5-0.715 8.607 2.143-1.786 0.393-3.32-0.108-2.964 1.357 0.678 3.5 10.035 12.286 15.25 15.07 0.57 0.5 0.787 1.75 2.143 2.643 4.144 1.858 5.786 1.821 8.143 4.857 2.608 0.57 5.857-0.072 8.929 0.643 5.535 1.536 6.287 6.18 11.608 7.715 1.393 0.071 1.536-0.356 4.035 0.25 0.357 0.822 1.357 1.251 2.822 1.822 5.572 1.25 1.607-4.928 6.036-5-0.786-1.285-1.143-4.286-1.642-6.07-0.786-2.893 5.392-2 7.108-3.608 63.928 53.286 112.643 124.072 139.143 204.857-0.214 0.25-0.536 0.356-0.715 0.607-6.75 12.535-11.893 26.785-15.715 42.858-1.57 5.965-10.428 10.57-10.178 19.25 2.68 16.392 12 29.75 12.107 48.356 0.286 10.5-7.427 30.178-17.035 35.214 2.323 5.823 9.608 13.678 10.107 19.572-0.25 3.536 1.18 6.893 1.285 13.25-0.82-0.037-0.285 0.036-1.142 0.036 2.642 2.785 2.57 3.107 4.928 5.572 0.07 1.57 18.285 19.821 21.141 21.822 5 4.893 7.143 10.679 9.429 17.071-31.816 166.07-155.458 299.57-315.96 345.854z m11.072-857.356c-0.57-0.072-0.715 0.036-1.428-0.072-1.536-0.25-2.5-0.82-3.466-1.393 1.643 0.464 3.286 0.929 4.894 1.465z" p-id="4205" fill="currentColor"></path></svg>